<svg width="72" height="30" viewBox="0 0 72 30" fill="none" xmlns="http://www.w3.org/2000/svg">
<path id="Vector" d="M0.431196 2.52416C1.27465 0.873554 3.39616 0.0558123 5.14323 0.635698C6.23599 0.981429 7.12241 1.86025 7.53984 2.92048C9.87245 8.43592 12.2155 13.9475 14.5472 19.4628C14.6112 19.3453 14.6724 19.2259 14.7258 19.1027C16.5178 14.8549 18.3241 10.6118 20.1247 6.36689C20.9873 4.37148 22.3818 2.52508 24.3324 1.49437C25.4166 0.91551 26.6296 0.598368 27.8503 0.498104C31.0092 0.153299 34.2216 1.6587 36.1942 4.10781C38.0272 2.5365 40.1429 1.20016 42.5224 0.661508C43.809 0.364418 45.1453 0.421699 46.4464 0.581196C48.073 0.792316 49.6806 1.35307 50.9884 2.36178C51.6475 2.85744 52.2148 3.46499 52.7277 4.10884C54.9868 1.92525 58.0378 0.482885 61.2081 0.450389C63.2284 0.407404 65.2706 0.944203 66.9709 2.04649C68.9281 3.29213 70.3761 5.30954 70.9025 7.57242C71.1604 8.6164 71.1719 9.69863 71.169 10.7675C71.169 15.3525 71.1681 19.9375 71.1699 24.5225C71.1575 25.1329 71.1347 25.7519 70.9665 26.3432C70.6723 27.4751 69.9206 28.5257 68.8268 28.9957C67.287 29.6682 65.2572 29.4161 64.1377 28.0902C63.236 27.071 63.0086 25.6506 63.0478 24.3324C63.0498 20.0664 63.0478 15.8005 63.0487 11.5345C63.0478 10.4275 62.6409 9.29655 61.8251 8.5295C61.0792 7.81593 60.0389 7.46352 59.0159 7.45581C57.8792 7.42722 56.7033 7.78735 55.8666 8.57825C55.0623 9.32802 54.6306 10.4351 54.6382 11.5279C54.6382 15.9228 54.6391 20.3167 54.6373 24.7116C54.6315 25.8503 54.3689 27.0347 53.6419 27.9383C53.0678 28.6786 52.1938 29.1629 51.2701 29.2957C50.2394 29.4456 49.1247 29.2947 48.2583 28.6881C47.4779 28.1542 46.9612 27.3003 46.7186 26.3976C46.4702 25.5408 46.5113 24.64 46.5103 23.7583C46.5103 19.6825 46.5094 15.6075 46.5113 11.5317C46.5017 10.5182 46.1684 9.48566 45.4816 8.72726C44.7117 7.8618 43.533 7.44346 42.3915 7.45488C41.2424 7.44624 40.0551 7.83414 39.2413 8.66802C38.4618 9.43692 38.0845 10.545 38.0864 11.6272C38.0864 16.0536 38.0854 20.4811 38.0864 24.9075C38.0787 26.025 37.7597 27.1771 37.0252 28.0395C36.4864 28.6834 35.7156 29.118 34.8922 29.268C33.7097 29.4867 32.3896 29.2852 31.4562 28.4838C30.4294 27.6116 29.9882 26.2247 29.9843 24.9104C29.9805 19.5249 29.9843 14.1404 29.9824 8.75584C29.9929 8.33463 29.7875 7.90962 29.4245 7.68698C28.8696 7.31451 27.9955 7.49406 27.73 8.13688C25.2045 13.6389 22.6751 19.139 20.1534 24.6429C19.6041 25.7882 19.0242 26.9477 18.1531 27.8877C17.5188 28.5736 16.6735 29.0664 15.7517 29.2375C14.3036 29.5144 12.6865 29.3157 11.5088 28.37C10.265 27.37 9.54769 25.8971 8.89242 24.4795C6.03825 18.263 3.17455 12.0513 0.325168 5.83389C-0.13142 4.78796 -0.117093 3.53379 0.431196 2.52416Z" fill="#050038"/>
</svg>
